<?xml version="1.0" encoding="UTF-8" standalone="no"?>
<!-- Created with Inkscape (http://www.inkscape.org/) -->

<svg
   width="142.7724mm"
   height="41.178574mm"
   viewBox="0 0 142.7724 41.178574"
   version="1.1"
   id="svg1"
   xml:space="preserve"
   xmlns="http://www.w3.org/2000/svg"
   xmlns:svg="http://www.w3.org/2000/svg"><defs
     id="defs1" /><g
     id="layer1"
     transform="translate(-14.636688,-52.596201)"><g
       id="g1"
       transform="translate(-32.890909,-13.5)"><path
         style="fill:#3771c8"
         d="m 55.818242,106.03949 c -1.35186,-0.23285 -2.83823,-0.9673 -3.84876,-1.90175 -2.26356,-2.09315 -2.91949,-5.202689 -1.6514,-7.828709 1.0408,-2.15532 3.03256,-3.54245 5.38707,-3.75175 l 0.74319,-0.0661 0.22694,-0.67484 c 1.15689,-3.44023 4.79589,-6.1057 8.4109,-6.16079 0.52636,-0.008 1.25344,0.022 1.61573,0.0667 l 0.65872,0.0813 0.2983,-0.63536 c 0.52991,-1.12869 1.64254,-2.68241 2.61072,-3.64574 5.96064,-5.93076 15.48879,-5.46913 20.54997,0.99562 1.39654,1.78383 2.36359,4.01039 2.62995,6.0553 l 0.067,0.51468 0.87608,0.0568 c 1.96656,0.12741 3.42671,0.7675 4.75329,2.0837 0.47657,0.47284 1.038658,1.13171 1.249088,1.46414 1.59293,2.51647 1.84266,5.79726 0.64594,8.485999 -0.99894,2.24439 -2.492615,3.7642 -4.931515,4.57386 l -1.499025,0.3547 -3.299439,0.11253 -3.217611,0.0307 1.022768,-1.07847 0.736413,-0.83302 h 1.165721 c 3.144497,0 3.816719,-0.21776 5.29677,-0.79079 1.08338,-0.53927 2.35909,-1.81297 2.85405,-2.84956 0.50574,-1.059159 0.70686,-1.965959 0.70319,-3.170479 -0.004,-1.2539 -0.19475,-2.03384 -0.79917,-3.26442 -0.80734,-1.64374 -2.20165,-2.78413 -3.89102,-3.18244 -0.89201,-0.21031 -2.13998,-0.19329 -2.88761,0.0394 l -0.61341,0.19091 v -0.83251 c 0,-0.45789 -0.0686,-1.23512 -0.15248,-1.72718 -0.62969,-3.69455 -2.84334,-6.68118 -6.14367,-8.28896 -3.62681,-1.76683 -7.5826,-1.58521 -11.34894,0.52105 -1.39596,0.78067 -2.90915,2.16872 -3.80936,3.49433 -0.5547,0.81684 -1.14682,2.08678 -1.37582,2.95079 -0.0991,0.37399 -0.21833,0.67998 -0.2649,0.67998 -0.0466,0 -0.20877,-0.0642 -0.36044,-0.1426 -0.44835,-0.23185 -1.76083,-0.46183 -2.63565,-0.46183 -2.84875,0 -5.55075,1.63299 -6.75074,4.07991 -0.37561,0.76592 -0.7039,2.00654 -0.7039,2.66008 0,0.29252 -0.009,0.2981 -0.30951,0.19333 -0.18202,-0.0635 -0.77797,-0.09 -1.4468,-0.0644 -1.08045,0.0414 -1.17951,0.0639 -1.98229,0.4507 -3.13197,1.50916 -3.76736,5.322079 -1.29833,7.791109 0.72129,0.72128 1.56207,1.19784 2.6192,1.48458 0.59949,0.1626 1.32496,0.17761 8.58792,0.17761 h 14.969484 l 0.879585,0.93182 0.879576,0.93183 -16.778975,-0.0118 c -4.39094,-0.007 -8.18752,-0.047 -8.43685,-0.0899 z"
         id="path1" /><path
         d="m 49.308691,91.9406 c -0.31538,-0.31538 -0.40543,-0.6945 -0.25259,-1.06348 0.14712,-0.35517 0.36399,-0.50504 1.15942,-0.8012 0.33227,-0.12371 1.07734,-0.42707 1.65571,-0.67413 1.27621,-0.54515 1.65785,-0.58378 1.987,-0.20111 0.29053,0.33776 0.30217,0.7563 0.0306,1.10152 -0.11813,0.15017 -0.89365,0.60533 -1.8254,1.07134 -1.83851,0.9195 -2.30607,1.01575 -2.75477,0.56706 z m 6.33306,-4.00814 c -0.0452,-0.072 -0.078,-0.72014 -0.0729,-1.44042 0.0224,-3.15667 1.04868,-5.58883 3.31397,-7.85413 1.19977,-1.19976 2.23886,-1.91971 3.65325,-2.53121 3.07694,-1.33029 6.59831,-1.1972 9.69113,0.36628 1.28942,0.65182 1.28063,0.59063 0.17004,1.18403 l -0.96584,0.51606 -0.67563,-0.30635 c -1.65872,-0.7521 -3.81394,-0.98201 -5.64729,-0.60244 -4.29363,0.88894 -7.46589,4.54653 -7.64637,8.8162 l -0.0422,0.99878 -0.73098,0.3959 c -0.40203,0.21775 -0.7836,0.43915 -0.84793,0.49201 -0.0768,0.0631 -0.14522,0.0511 -0.1992,-0.0347 z m -3.3608,-4.61153 c -0.47095,-0.0953 -1.44559,-0.27715 -2.16587,-0.40416 -1.51565,-0.26727 -1.82937,-0.39795 -2.01355,-0.83875 -0.18154,-0.43449 -0.0876,-0.82657 0.27031,-1.1277 0.37098,-0.31215 0.51309,-0.3117 1.91764,0.006 3.7766,0.85471 3.9055,0.90948 3.9055,1.65933 0,0.30383 -0.064,0.43666 -0.30994,0.64364 -0.35231,0.29645 -0.42815,0.29935 -1.60409,0.0615 z m 5.07396,-7.11661 c -0.12129,-0.0498 -2.81856,-2.96117 -3.28585,-3.54664 -0.37902,-0.47488 -0.37289,-0.9442 0.0174,-1.33452 0.21768,-0.21768 0.39016,-0.29447 0.66142,-0.29447 0.51272,0 0.64631,0.0936 1.32074,0.9256 0.32693,0.40331 0.99663,1.21002 1.48822,1.79269 1.00437,1.19047 1.21814,1.57798 1.0763,1.95106 -0.17062,0.44877 -0.80583,0.70036 -1.27827,0.50628 z m 16.78629,-0.67202 c -0.35351,-0.17881 -0.56072,-0.64319 -0.43367,-0.97194 0.10297,-0.26647 2.31286,-3.40861 2.6776,-3.80716 0.76185,-0.832494 2.19235,0.12125 1.66966,1.11321 -0.14405,0.27338 -2.76192,3.37955 -3.049,3.61772 -0.24941,0.20691 -0.52085,0.22204 -0.86459,0.0482 z m -8.55281,-2.85164 c -0.25438,-0.32339 -0.27425,-0.44353 -0.46245,-2.794911 -0.20465,-2.557039 -0.20274,-2.609291 0.10886,-2.979606 0.21989,-0.26132 0.33173,-0.309945 0.71292,-0.309945 0.36539,0 0.5086,0.05649 0.74658,0.294467 l 0.29447,0.294466 v 2.677318 c 0,2.543001 -0.0101,2.687431 -0.20148,2.878791 -0.30648,0.30648 -0.93516,0.27471 -1.1989,-0.0606 z"
         style="fill:#ffcc00;stroke:#ffcc00;stroke-opacity:1"
         id="path1-7" /><path
         d="m 83.568671,106.69408 c -0.42308,-0.31323 -2.666474,-2.48149 -4.985344,-4.8184 -3.931782,-3.962373 -4.207043,-4.286431 -4.081835,-4.805168 0.231541,-0.959153 0.541162,-1.049361 3.602014,-1.049361 h 2.822206 v -3.352978 -3.353016 h 3.648847 c 2.006859,0 3.701083,6.4e-5 3.76493,1.41e-4 0.06383,7.8e-5 0.104547,1.508923 0.09045,3.352991 l -0.02564,3.352862 h 2.857074 c 2.707101,0 2.885093,0.02411 3.391012,0.459288 0.406773,0.349895 0.505157,0.573054 0.412999,0.936873 -0.06676,0.263269 -2.230589,2.579599 -4.822232,5.161898 -5.247153,5.22825 -5.205391,5.2025 -6.674517,4.11487 z"
         style="fill:#2ca02c;stroke-width:1.9579"
         id="path1-4" /></g><text
       xml:space="preserve"
       style="font-style:normal;font-variant:normal;font-weight:normal;font-stretch:condensed;font-size:19.7556px;font-family:'Square721 Cn BT';-inkscape-font-specification:'Square721 Cn BT Condensed';text-align:start;writing-mode:lr-tb;direction:ltr;text-anchor:start;fill:#3771c8;stroke:#3771c8;stroke-width:0.264583;stroke-opacity:1"
       x="72.245461"
       y="71.100006"
       id="text1"><tspan
         id="tspan1"
         style="font-style:normal;font-variant:normal;font-weight:normal;font-stretch:normal;font-size:19.7556px;font-family:'Trebuchet MS';-inkscape-font-specification:'Trebuchet MS';fill:#3771c8;stroke:#3771c8;stroke-width:0.264583"
         x="72.245461"
         y="71.100006">Weather</tspan></text><text
       xml:space="preserve"
       style="font-style:normal;font-variant:normal;font-weight:normal;font-stretch:condensed;font-size:19.7556px;font-family:'Square721 Cn BT';-inkscape-font-specification:'Square721 Cn BT Condensed';text-align:start;writing-mode:lr-tb;direction:ltr;text-anchor:start;fill:#3771c8;stroke:#3771c8;stroke-width:0.264583;stroke-opacity:1"
       x="72.572723"
       y="89.432587"
       id="text2"><tspan
         id="tspan2"
         style="font-style:normal;font-variant:normal;font-weight:normal;font-stretch:normal;font-size:19.7556px;font-family:'Trebuchet MS';-inkscape-font-specification:'Trebuchet MS';stroke-width:0.264583"
         x="72.572723"
         y="89.432587">Download</tspan></text></g></svg>
